      <svg width="30" xmlns="http://www.w3.org/2000/svg" viewBox="0 0 32 32">
        <path
          d="m29.12 5.71-3.83-3.83A3 3 0 0 0 23.17 1H5a3 3 0 0 0-3 3v14a3 3 0 0 0 3 3h3.32l3.75 9.37A1 1 0 0 0 13 31a6.42 6.42 0 0 0 6-8.8l-.52-1.2H27a3 3 0 0 0 3-3V7.83a3 3 0 0 0-.88-2.12zM4 18V4a1 1 0 0 1 1-1h3v16H5a1 1 0 0 1-1-1zm24 0a1 1 0 0 1-1 1H17a1 1 0 0 0-.93 1.37l1 2.57a4.38 4.38 0 0 1-.44 4.12 4.31 4.31 0 0 1-3 1.89L10 19.81V3h13.17a1 1 0 0 1 .71.29l3.83 3.83a1 1 0 0 1 .29.71z"
          data-name="thumb down android app aplication phone"
        />
      </svg>